<?xml version="1.0" encoding="UTF-8" standalone="no"?>
<!-- Created with Inkscape (http://www.inkscape.org/) -->

<svg
   width="48"
   height="48"
   viewBox="0 0 12.7 12.7"
   version="1.1"
   id="svg2634"
   inkscape:version="1.1 (c4e8f9ed74, 2021-05-24)"
   sodipodi:docname="drive-harddisk-solidstate.svg"
   xmlns:inkscape="http://www.inkscape.org/namespaces/inkscape"
   xmlns:sodipodi="http://sodipodi.sourceforge.net/DTD/sodipodi-0.dtd"
   xmlns="http://www.w3.org/2000/svg"
   xmlns:svg="http://www.w3.org/2000/svg"
   xmlns:rdf="http://www.w3.org/1999/02/22-rdf-syntax-ns#"
   xmlns:cc="http://creativecommons.org/ns#"
   xmlns:dc="http://purl.org/dc/elements/1.1/">
  <title
     id="title3250">Boston Icons</title>
  <defs
     id="defs2628" />
  <sodipodi:namedview
     id="base"
     pagecolor="#ffffff"
     bordercolor="#00ffed"
     borderopacity="1"
     inkscape:pageopacity="1"
     inkscape:pageshadow="2"
     inkscape:zoom="15.839192"
     inkscape:cx="22.539029"
     inkscape:cy="28.126435"
     inkscape:document-units="px"
     inkscape:current-layer="g981"
     showgrid="false"
     showguides="false"
     inkscape:guide-bbox="true"
     fit-margin-top="0"
     fit-margin-left="0"
     fit-margin-right="0"
     fit-margin-bottom="0"
     inkscape:window-width="1920"
     inkscape:window-height="1011"
     inkscape:window-x="0"
     inkscape:window-y="32"
     inkscape:window-maximized="1"
     units="px"
     inkscape:pagecheckerboard="0">
    <inkscape:grid
       type="xygrid"
       id="grid3182"
       spacingx="0.26458333"
       spacingy="0.26458333"
       empspacing="4"
       originx="-82.550004"
       originy="-127.00001"
       dotted="false" />
    <sodipodi:guide
       position="-4.268358e-06,27.516666"
       orientation="1,0"
       id="guide3216"
       inkscape:locked="false" />
    <sodipodi:guide
       position="32.279157,-4.1479283e-06"
       orientation="0,1"
       id="guide3222"
       inkscape:locked="false" />
    <sodipodi:guide
       position="13.229163,0.52915746"
       orientation="0,1"
       id="guide3226"
       inkscape:locked="false" />
    <sodipodi:guide
       position="5.8208298,12.170824"
       orientation="0,1"
       id="guide864"
       inkscape:locked="false" />
    <sodipodi:guide
       position="12.699995,10.847905"
       orientation="1,0"
       id="guide868"
       inkscape:locked="false" />
    <sodipodi:guide
       position="2.1166616,12.170822"
       orientation="1,0"
       id="guide1119"
       inkscape:locked="false" />
    <sodipodi:guide
       position="10.583328,11.112488"
       orientation="1,0"
       id="guide1121"
       inkscape:locked="false" />
    <sodipodi:guide
       position="1.8520783,8.7312383"
       orientation="0,1"
       id="guide1131"
       inkscape:locked="false" />
    <sodipodi:guide
       position="3.4395782,8.2020716"
       orientation="1,0"
       id="guide1138"
       inkscape:locked="false" />
    <sodipodi:guide
       position="9.2604115,7.1437383"
       orientation="1,0"
       id="guide1140"
       inkscape:locked="false" />
    <sodipodi:guide
       position="1.8520783,10.318738"
       orientation="0,1"
       id="guide1142"
       inkscape:locked="false" />
    <sodipodi:guide
       position="1.3229116,3.1749884"
       orientation="0,1"
       id="guide1152"
       inkscape:locked="false" />
    <sodipodi:guide
       position="4.2333282,1.5874884"
       orientation="0,1"
       id="guide849"
       inkscape:locked="false" />
    <sodipodi:guide
       position="9.5249948,3.1749884"
       orientation="1,0"
       id="guide915"
       inkscape:locked="false" />
    <sodipodi:guide
       position="4.7624949,4.7624883"
       orientation="1,0"
       id="guide917"
       inkscape:locked="false" />
  </sodipodi:namedview>
  <metadata
     id="metadata2631">
    <rdf:RDF>
      <cc:Work
         rdf:about="">
        <dc:format>image/svg+xml</dc:format>
        <dc:type
           rdf:resource="http://purl.org/dc/dcmitype/StillImage" />
        <dc:title>Boston Icons</dc:title>
        <cc:license
           rdf:resource="dribbble.com/chrisdiaz" />
        <dc:creator>
          <cc:Agent>
            <dc:title>Christian Díaz</dc:title>
          </cc:Agent>
        </dc:creator>
        <dc:date>2021</dc:date>
        <dc:publisher>
          <cc:Agent>
            <dc:title>Christian Díaz</dc:title>
          </cc:Agent>
        </dc:publisher>
        <dc:identifier>christiandiaz.design [at] gmail [dot] com</dc:identifier>
        <dc:subject>
          <rdf:Bag>
            <rdf:li>GNOME icon Theme</rdf:li>
          </rdf:Bag>
        </dc:subject>
        <dc:description>dribbble.com/chrisdiaz | diazchris.deviantart.com</dc:description>
      </cc:Work>
    </rdf:RDF>
  </metadata>
  <g
     inkscape:label="Capa 1"
     inkscape:groupmode="layer"
     id="layer1"
     transform="translate(-82.550003,-157.3)">
    <g
       id="g981">
      <g
         id="g1174">
        <rect
           style="opacity:1;fill:#373b43;fill-opacity:1;fill-rule:nonzero;stroke:none;stroke-width:1.58749998;stroke-linecap:square;stroke-linejoin:bevel;stroke-miterlimit:4;stroke-dasharray:none;stroke-dashoffset:35;stroke-opacity:1"
           id="rect846"
           width="8.4666662"
           height="11.641666"
           x="84.666664"
           y="157.82918"
           ry="0.26458389"
           rx="0.26458347" />
        <rect
           style="opacity:1;fill:#96a5af;fill-opacity:1;fill-rule:nonzero;stroke:none;stroke-width:1.58749998;stroke-linecap:square;stroke-linejoin:bevel;stroke-miterlimit:4;stroke-dasharray:none;stroke-dashoffset:35;stroke-opacity:1"
           id="rect909"
           width="7.9375"
           height="11.1125"
           x="84.931252"
           y="158.09377"
           rx="3.6958788e-06"
           ry="0" />
        <path
           id="path911"
           style="opacity:1;fill:#373b43;fill-opacity:1;fill-rule:nonzero;stroke:none;stroke-width:6;stroke-linecap:square;stroke-linejoin:bevel;stroke-miterlimit:4;stroke-dasharray:none;stroke-dashoffset:35;stroke-opacity:1"
           d="m 12,5 c -0.552285,0 -1,0.4477152 -1,1 0,0.5522848 0.447715,1 1,1 0.552285,0 1,-0.4477152 1,-1 0,-0.5522848 -0.447715,-1 -1,-1 z m 24,0 c -0.552285,0 -1,0.4477152 -1,1 0,0.5522848 0.447715,1 1,1 0.552285,0 1,-0.4477152 1,-1 C 37,5.4477152 36.552285,5 36,5 Z M 12,38 c -0.552285,0 -1,0.447716 -1,1 0,0.552285 0.447715,1.000001 1,1 0.552285,10e-7 1,-0.447715 1,-1 0,-0.552284 -0.447715,-1 -1,-1 z m 24,0 c -0.552285,0 -1,0.447716 -1,1 0,0.552285 0.447715,1.000001 1,1 0.552285,10e-7 1,-0.447715 1,-1 0,-0.552284 -0.447715,-1 -1,-1 z"
           transform="matrix(0.26458333,0,0,0.26458333,82.550003,157.3)"
           sodipodi:nodetypes="ssssssssssssssssssss" />
        <rect
           style="opacity:1;fill:#373b43;fill-opacity:1;fill-rule:nonzero;stroke:none;stroke-width:1.58749998;stroke-linecap:square;stroke-linejoin:bevel;stroke-miterlimit:4;stroke-dasharray:none;stroke-dashoffset:35;stroke-opacity:1"
           id="rect919"
           width="4.7624989"
           height="1.0583289"
           x="87.3125"
           y="168.41251"
           rx="3.6958852e-06" />
        <path
           id="rect921"
           style="opacity:1;fill:#cdd5d9;fill-opacity:1;fill-rule:nonzero;stroke:none;stroke-width:6;stroke-linecap:square;stroke-linejoin:bevel;stroke-miterlimit:4;stroke-dasharray:none;stroke-dashoffset:35;stroke-opacity:1"
           d="M 19 43 L 19 45 L 23 45 L 23 43 L 19 43 z M 25 43 L 25 45 L 35 45 L 35 43 L 25 43 z "
           transform="matrix(0.26458333,0,0,0.26458333,82.550003,157.3)" />
        <path
           id="rect1035"
           transform="matrix(0.26458333,0,0,0.26458333,82.550003,157.3)"
           d="m 17,11 v 4 h -1 v 1 h -4 v 2 h 4 v 2 h -4 v 2 h 4 v 2 h -4 v 2 h 4 v 2 h -4 v 2 h 4 v 1 h 1 v 4 h 2 v -4 h 2 v 4 h 2 v -4 h 2 v 4 h 2 v -4 h 2 v 4 h 2 v -4 h 1 v -1 h 4 v -2 h -4 v -2 h 4 v -2 h -4 v -2 h 4 v -2 h -4 v -2 h 4 v -2 h -4 v -1 h -1 v -4 h -2 v 4 h -2 v -4 h -2 v 4 h -2 v -4 h -2 v 4 h -2 v -4 z m 0,5 H 31 V 30 H 17 Z m 2,2 V 28 H 29 V 18 Z m 1,1 h 8 v 8 h -8 z m 1,1 v 2 h 3 v -2 z m 0,3 v 1 h 3 v -1 z m 4,0 v 1 h 1 v -1 z m -4,2 v 1 h 1 v -1 z m 2,0 v 1 h 2 v -1 z m 3,0 v 1 h 1 v -1 z"
           style="opacity:1;fill:#ffffff;fill-opacity:1;fill-rule:nonzero;stroke:none;stroke-width:6;stroke-linecap:square;stroke-linejoin:bevel;stroke-miterlimit:4;stroke-dasharray:none;stroke-dashoffset:35;stroke-opacity:1"
           inkscape:connector-curvature="0" />
      </g>
    </g>
  </g>
</svg>
