<?xml version="1.0" encoding="UTF-8" standalone="no"?>
<!-- Created with Inkscape (http://www.inkscape.org/) -->

<svg
   width="128"
   height="128"
   viewBox="0 0 33.866667 33.866667"
   version="1.1"
   id="svg2634"
   inkscape:version="1.1 (c4e8f9ed74, 2021-05-24)"
   sodipodi:docname="drive-harddisk-solidstate.svg"
   xmlns:inkscape="http://www.inkscape.org/namespaces/inkscape"
   xmlns:sodipodi="http://sodipodi.sourceforge.net/DTD/sodipodi-0.dtd"
   xmlns="http://www.w3.org/2000/svg"
   xmlns:svg="http://www.w3.org/2000/svg"
   xmlns:rdf="http://www.w3.org/1999/02/22-rdf-syntax-ns#"
   xmlns:cc="http://creativecommons.org/ns#"
   xmlns:dc="http://purl.org/dc/elements/1.1/">
  <title
     id="title3250">Boston Icons</title>
  <defs
     id="defs2628" />
  <sodipodi:namedview
     id="base"
     pagecolor="#ffffff"
     bordercolor="#00ffed"
     borderopacity="1"
     inkscape:pageopacity="1"
     inkscape:pageshadow="2"
     inkscape:zoom="3.959798"
     inkscape:cx="30.052038"
     inkscape:cy="72.604714"
     inkscape:document-units="px"
     inkscape:current-layer="layer1"
     showgrid="false"
     showguides="false"
     inkscape:guide-bbox="true"
     fit-margin-top="0"
     fit-margin-left="0"
     fit-margin-right="0"
     fit-margin-bottom="0"
     inkscape:window-width="1920"
     inkscape:window-height="1011"
     inkscape:window-x="0"
     inkscape:window-y="32"
     inkscape:window-maximized="1"
     units="px"
     inkscape:pagecheckerboard="0">
    <inkscape:grid
       type="xygrid"
       id="grid3182"
       spacingx="0.52916667"
       spacingy="0.52916667"
       empspacing="4"
       originx="-82.550004"
       originy="-127.00001"
       dotted="false" />
    <sodipodi:guide
       position="-4.268358e-06,27.516666"
       orientation="1,0"
       id="guide3216"
       inkscape:locked="false" />
    <sodipodi:guide
       position="3.7041618,33.866666"
       orientation="0,1"
       id="guide3218"
       inkscape:locked="false" />
    <sodipodi:guide
       position="33.866657,24.870836"
       orientation="1,0"
       id="guide3220"
       inkscape:locked="false" />
    <sodipodi:guide
       position="32.279157,-4.1479283e-06"
       orientation="0,1"
       id="guide3222"
       inkscape:locked="false" />
    <sodipodi:guide
       position="15.345829,32.808336"
       orientation="0,1"
       id="guide3224"
       inkscape:locked="false" />
    <sodipodi:guide
       position="-4.7625023,1.0583259"
       orientation="0,1"
       id="guide3226"
       inkscape:locked="false" />
    <sodipodi:guide
       position="1.0583287,17.462496"
       orientation="1,0"
       id="guide3228"
       inkscape:locked="false" />
    <sodipodi:guide
       position="32.808327,20.108336"
       orientation="1,0"
       id="guide3230"
       inkscape:locked="false" />
    <sodipodi:guide
       position="15.874995,31.750006"
       orientation="0,1"
       id="guide3232"
       inkscape:locked="false" />
    <sodipodi:guide
       position="2.1166617,24.870836"
       orientation="1,0"
       id="guide3234"
       inkscape:locked="false" />
    <sodipodi:guide
       position="3.1749958,25.400006"
       orientation="1,0"
       id="guide3236"
       inkscape:locked="false" />
    <sodipodi:guide
       position="5.2916633,15.345824"
       orientation="1,0"
       id="guide3238"
       inkscape:locked="false" />
    <sodipodi:guide
       position="28.574997,25.400006"
       orientation="1,0"
       id="guide3240"
       inkscape:locked="false" />
    <sodipodi:guide
       position="30.691657,24.341666"
       orientation="1,0"
       id="guide3242"
       inkscape:locked="false" />
    <sodipodi:guide
       position="31.749997,21.695836"
       orientation="1,0"
       id="guide3244"
       inkscape:locked="false" />
    <sodipodi:guide
       position="21.695827,2.1166659"
       orientation="0,1"
       id="guide3246"
       inkscape:locked="false" />
    <sodipodi:guide
       position="16.404162,3.1749959"
       orientation="0,1"
       id="guide3248"
       inkscape:locked="false" />
    <sodipodi:guide
       position="26.987497,30.162491"
       orientation="0,1"
       id="guide843"
       inkscape:locked="false" />
    <sodipodi:guide
       position="30.162497,26.458325"
       orientation="0,1"
       id="guide845"
       inkscape:locked="false" />
  </sodipodi:namedview>
  <metadata
     id="metadata2631">
    <rdf:RDF>
      <cc:Work
         rdf:about="">
        <dc:format>image/svg+xml</dc:format>
        <dc:type
           rdf:resource="http://purl.org/dc/dcmitype/StillImage" />
        <dc:title>Boston Icons</dc:title>
        <cc:license
           rdf:resource="dribbble.com/chrisdiaz" />
        <dc:creator>
          <cc:Agent>
            <dc:title>Christian Díaz</dc:title>
          </cc:Agent>
        </dc:creator>
        <dc:date>2019</dc:date>
        <dc:publisher>
          <cc:Agent>
            <dc:title>Christian Díaz</dc:title>
          </cc:Agent>
        </dc:publisher>
        <dc:identifier>christiandiaz.design [at] gmail [dot] com</dc:identifier>
        <dc:subject>
          <rdf:Bag>
            <rdf:li>GNOME icon Theme</rdf:li>
          </rdf:Bag>
        </dc:subject>
        <dc:description>diazchris.deviantart.com | dribbble.com/chrisdiaz</dc:description>
      </cc:Work>
    </rdf:RDF>
  </metadata>
  <g
     inkscape:label="Capa 1"
     inkscape:groupmode="layer"
     id="layer1"
     transform="translate(-82.550003,-136.13333)">
    <g
       id="g867">
      <rect
         rx="0.529167"
         ry="0.52917367"
         y="137.19167"
         x="87.841667"
         height="31.750008"
         width="23.283333"
         id="rect910"
         style="opacity:1;fill:#373b43;fill-opacity:1;stroke:none;stroke-width:0.5291667;stroke-linecap:square;stroke-linejoin:bevel;stroke-miterlimit:4;stroke-dasharray:none;stroke-opacity:1" />
      <path
         id="rect908"
         transform="matrix(0.26458334,0,0,0.26458334,82.550003,136.13333)"
         d="m 22,6 v 116 h 28 v -6 h 48 v 6 h 8 V 6 Z"
         style="opacity:1;fill:#96a5af;fill-opacity:1;stroke:none;stroke-width:2;stroke-linecap:square;stroke-linejoin:bevel;stroke-miterlimit:4;stroke-dasharray:none;stroke-opacity:1"
         inkscape:connector-curvature="0" />
      <path
         id="rect1007"
         style="opacity:1;fill:#cdd5d9;fill-opacity:1;stroke:none;stroke-width:2;stroke-linecap:square;stroke-linejoin:bevel;stroke-miterlimit:4;stroke-dasharray:none;stroke-opacity:1"
         d="M 52 118 L 52 122 L 64 122 L 64 118 L 52 118 z M 68 118 L 68 122 L 96 122 L 96 118 L 68 118 z "
         transform="matrix(0.26458334,0,0,0.26458334,82.550003,136.13333)" />
      <circle
         r="0.5291667"
         cy="139.30833"
         cx="89.958336"
         id="path851"
         style="opacity:1;fill:#373b43;fill-opacity:1;fill-rule:evenodd;stroke:none;stroke-width:2.11666679;stroke-linecap:round;stroke-linejoin:bevel;stroke-miterlimit:4;stroke-dasharray:none;stroke-opacity:1" />
      <circle
         r="0.5291667"
         cy="139.30833"
         cx="109.00833"
         id="path853"
         style="opacity:1;fill:#373b43;fill-opacity:1;fill-rule:evenodd;stroke:none;stroke-width:2.11666679;stroke-linecap:round;stroke-linejoin:bevel;stroke-miterlimit:4;stroke-dasharray:none;stroke-opacity:1" />
      <circle
         r="0.5291667"
         cy="165.2375"
         cx="109.00833"
         id="path855"
         style="opacity:1;fill:#373b43;fill-opacity:1;fill-rule:evenodd;stroke:none;stroke-width:2.11666679;stroke-linecap:round;stroke-linejoin:bevel;stroke-miterlimit:4;stroke-dasharray:none;stroke-opacity:1" />
      <circle
         r="0.5291667"
         cy="165.2375"
         cx="89.958336"
         id="path857"
         style="opacity:1;fill:#373b43;fill-opacity:1;fill-rule:evenodd;stroke:none;stroke-width:2.11666679;stroke-linecap:round;stroke-linejoin:bevel;stroke-miterlimit:4;stroke-dasharray:none;stroke-opacity:1" />
      <path
         id="rect848"
         style="opacity:1;fill:#ffffff;fill-opacity:1;fill-rule:evenodd;stroke:none;stroke-width:2;stroke-linecap:square;stroke-linejoin:bevel;stroke-miterlimit:4;stroke-dasharray:none;stroke-opacity:1"
         d="M 50 36 L 50 44 L 46 44 L 46 48 L 38 48 L 38 52 L 46 52 L 46 56 L 38 56 L 38 60 L 46 60 L 46 64 L 38 64 L 38 68 L 46 68 L 46 72 L 38 72 L 38 76 L 46 76 L 46 80 L 50 80 L 50 88 L 54 88 L 54 80 L 58 80 L 58 88 L 62 88 L 62 80 L 66 80 L 66 88 L 70 88 L 70 80 L 74 80 L 74 88 L 78 88 L 78 80 L 82 80 L 82 76 L 90 76 L 90 72 L 82 72 L 82 68 L 90 68 L 90 64 L 82 64 L 82 60 L 90 60 L 90 56 L 82 56 L 82 52 L 90 52 L 90 48 L 82 48 L 82 44 L 78 44 L 78 36 L 74 36 L 74 44 L 70 44 L 70 36 L 66 36 L 66 44 L 62 44 L 62 36 L 58 36 L 58 44 L 54 44 L 54 36 L 50 36 z M 48 46 L 80 46 L 80 78 L 48 78 L 48 46 z M 52 50 L 52 74 L 76 74 L 76 50 L 52 50 z M 54 52 L 74 52 L 74 72 L 54 72 L 54 52 z M 56 54 L 56 58 L 64 58 L 64 54 L 56 54 z M 56 60 L 56 62 L 60 62 L 60 60 L 56 60 z M 62 60 L 62 62 L 64 62 L 64 60 L 62 60 z M 66 60 L 66 62 L 70 62 L 70 60 L 66 60 z M 56 64 L 56 66 L 58 66 L 58 64 L 56 64 z M 60 64 L 60 66 L 64 66 L 64 64 L 60 64 z M 66 64 L 66 66 L 68 66 L 68 64 L 66 64 z "
         transform="matrix(0.26458334,0,0,0.26458334,82.550003,136.13333)" />
    </g>
  </g>
</svg>
